<svg
    width="15"
    height="15"
    viewBox="-2 -2 19 19"
    fill="none"
    xmlns="http://www.w3.org/2000/svg"
>
    <style>
        @media (prefers-color-scheme: dark) {
            path {
                fill: #f2f2f2;
                stroke: #f2f2f2;
            }
        }
        @media (prefers-color-scheme: light) {
            path {
                fill: #1F3349;
                stroke: #1F3349;
            }
        }
    </style>
    <!-- Shortcut-inspired sync icon -->
    <path
        d="M7.5 0.5C4.74 0.5 2.37 2.19 1.44 4.68C1.31 5.04 1.51 5.44 1.89 5.44H2.72C2.97 5.44 3.19 5.29 3.29 5.06C4.00 3.32 5.61 2.1 7.5 2.1C9.71 2.1 11.5 3.89 11.5 6.1C11.5 8.31 9.71 10.1 7.5 10.1C6.45 10.1 5.47 9.73 4.71 9.09L5.82 7.98C6.19 7.61 5.92 7 5.41 7H1.5C1.22 7 1 7.22 1 7.5V11.41C1 11.92 1.61 12.19 1.98 11.82L3.03 10.77C4.15 11.72 5.76 12.3 7.5 12.3C10.91 12.3 13.67 9.54 13.67 6.13C13.67 2.72 10.91 0.5 7.5 0.5Z"
        fill-rule="evenodd"
        clip-rule="evenodd"
    />
</svg>
