<?xml version="1.0" encoding="UTF-8" standalone="no"?>
<svg width="2618" height="964" viewBox="0 0 2618 964" xmlns="http://www.w3.org/2000/svg">
  <style>
    .shortcut { fill: #1F3349; }
    .github { fill: #24292F; }
    .sync-arrow { fill: #57606a; }
  </style>
  <rect width="100%" height="100%" fill="white"/>
  <g id="shortcut-logo" transform="translate(300,332) scale(2)">
    <image href="/home/ubuntu/repos/syncshortcut.com/temp/images/logos/shortcut-logo.svg" width="400" height="100"/>
  </g>
  <g id="github-logo" transform="translate(1918,332) scale(0.8)">
    <image href="/home/ubuntu/repos/syncshortcut.com/temp/images/logos/github-logo.png" width="400" height="100"/>
  </g>
  <g id="sync-arrows" transform="translate(1209,432)">
    <path class="sync-arrow" d="M100 0C50 0 10 40 0 90h20c10-40 45-70 80-70 45 0 80 35 80 80s-35 80-80 80c-35 0-65-25-75-60H0c10 45 50 80 100 80 55 0 100-45 100-100S155 0 100 0z"/>
  </g>
</svg>
